<svg xmlns="http://www.w3.org/2000/svg" xmlns:xlink="http://www.w3.org/1999/xlink" width="500" zoomAndPan="magnify" viewBox="0 0 375 374.999991" height="500" preserveAspectRatio="xMidYMid meet" version="1.0"><defs><g/><clipPath id="6018c66139"><path d="M 37.5 37.5 L 337.5 37.5 L 337.5 337.5 L 37.5 337.5 Z M 37.5 37.5 " clip-rule="nonzero"/></clipPath><clipPath id="5f23333860"><path d="M 187.5 37.5 C 104.65625 37.5 37.5 104.65625 37.5 187.5 C 37.5 270.34375 104.65625 337.5 187.5 337.5 C 270.34375 337.5 337.5 270.34375 337.5 187.5 C 337.5 104.65625 270.34375 37.5 187.5 37.5 Z M 187.5 37.5 " clip-rule="nonzero"/></clipPath><clipPath id="a6bf96ab4d"><path d="M 91.289062 91.289062 L 283.710938 91.289062 L 283.710938 283.710938 L 91.289062 283.710938 Z M 91.289062 91.289062 " clip-rule="nonzero"/></clipPath><clipPath id="8ae31420de"><path d="M 187.5 91.289062 C 134.363281 91.289062 91.289062 134.363281 91.289062 187.5 C 91.289062 240.636719 134.363281 283.710938 187.5 283.710938 C 240.636719 283.710938 283.710938 240.636719 283.710938 187.5 C 283.710938 134.363281 240.636719 91.289062 187.5 91.289062 Z M 187.5 91.289062 " clip-rule="nonzero"/></clipPath><clipPath id="6e539b2091"><path d="M 91.289062 91.289062 L 283.699219 91.289062 L 283.699219 283.699219 L 91.289062 283.699219 Z M 91.289062 91.289062 " clip-rule="nonzero"/></clipPath><clipPath id="e418432362"><path d="M 187.496094 91.289062 C 134.363281 91.289062 91.289062 134.363281 91.289062 187.496094 C 91.289062 240.628906 134.363281 283.699219 187.496094 283.699219 C 240.628906 283.699219 283.699219 240.628906 283.699219 187.496094 C 283.699219 134.363281 240.628906 91.289062 187.496094 91.289062 Z M 187.496094 91.289062 " clip-rule="nonzero"/></clipPath><clipPath id="bac389363c"><path d="M 69.300781 112.863281 L 91.050781 112.863281 L 91.050781 134.613281 L 69.300781 134.613281 Z M 69.300781 112.863281 " clip-rule="nonzero"/></clipPath><clipPath id="00733f9943"><path d="M 283.710938 112.863281 L 305.460938 112.863281 L 305.460938 134.613281 L 283.710938 134.613281 Z M 283.710938 112.863281 " clip-rule="nonzero"/></clipPath><clipPath id="ae78143a9e"><path d="M 120.722656 112.945312 L 258.703125 112.945312 L 258.703125 262.804688 L 120.722656 262.804688 Z M 120.722656 112.945312 " clip-rule="nonzero"/></clipPath></defs><g clip-path="url(#6018c66139)"><g clip-path="url(#5f23333860)"><path fill="#f6f6f6" d="M 37.5 37.5 L 337.5 37.5 L 337.5 337.5 L 37.5 337.5 Z M 37.5 37.5 " fill-opacity="1" fill-rule="nonzero"/><path stroke-linecap="butt" transform="matrix(0.75, 0, 0, 0.75, 37.500002, 37.499998)" fill="none" stroke-linejoin="miter" d="M 200.00001 0.00000328333 C 89.54167 0.00000328333 -0.00000271667 89.541676 -0.00000271667 200.000016 C -0.00000271667 310.458357 89.54167 400.00003 200.00001 400.00003 C 310.458351 400.00003 400.000024 310.458357 400.000024 200.000016 C 400.000024 89.541676 310.458351 0.00000328333 200.00001 0.00000328333 Z M 200.00001 0.00000328333 " stroke="#000000" stroke-width="4" stroke-opacity="1" stroke-miterlimit="4"/></g></g><g clip-path="url(#a6bf96ab4d)"><g clip-path="url(#8ae31420de)"><path fill="#f4c524" d="M 91.289062 91.289062 L 283.710938 91.289062 L 283.710938 283.710938 L 91.289062 283.710938 Z M 91.289062 91.289062 " fill-opacity="1" fill-rule="nonzero"/></g></g><g clip-path="url(#6e539b2091)"><g clip-path="url(#e418432362)"><path stroke-linecap="butt" transform="matrix(0.75, 0, 0, 0.75, 91.290899, 91.290894)" fill="none" stroke-linejoin="miter" d="M 128.273602 -0.00244201 C 57.429847 -0.00244201 -0.00244801 57.429853 -0.00244801 128.273608 C -0.00244801 199.117363 57.429847 256.54445 128.273602 256.54445 C 199.117357 256.54445 256.544444 199.117363 256.544444 128.273608 C 256.544444 57.429853 199.117357 -0.00244201 128.273602 -0.00244201 Z M 128.273602 -0.00244201 " stroke="#000000" stroke-width="4" stroke-opacity="1" stroke-miterlimit="4"/></g></g><g clip-path="url(#bac389363c)"><path fill="#000000" d="M 80.292969 112.863281 C 79.222656 121.917969 78.351562 122.785156 69.300781 123.855469 C 69.320312 123.859375 69.335938 123.863281 69.355469 123.863281 C 78.355469 124.933594 79.222656 125.816406 80.292969 134.847656 C 81.363281 125.796875 82.230469 124.929688 91.285156 123.855469 C 82.230469 122.785156 81.363281 121.917969 80.292969 112.863281 Z M 80.292969 112.863281 " fill-opacity="1" fill-rule="nonzero"/></g><g fill="#000000" fill-opacity="1"><g transform="translate(99.576806, 115.974023)"><g><path d="M -3.828125 -32.46875 C -1.960938 -33.832031 -0.125 -34.703125 1.6875 -35.078125 C 3.5 -35.460938 5.238281 -35.457031 6.90625 -35.0625 C 8.582031 -34.664062 10.132812 -33.9375 11.5625 -32.875 C 12.988281 -31.8125 14.257812 -30.523438 15.375 -29.015625 C 16.488281 -27.503906 17.335938 -25.90625 17.921875 -24.21875 C 18.515625 -22.53125 18.757812 -20.816406 18.65625 -19.078125 C 18.550781 -17.335938 18.050781 -15.660156 17.15625 -14.046875 C 16.257812 -12.429688 14.878906 -10.941406 13.015625 -9.578125 L 2 -1.46875 L -14.84375 -24.359375 Z M 8.78125 -12.875 C 11.125 -14.601562 12.347656 -16.453125 12.453125 -18.421875 C 12.554688 -20.390625 11.71875 -22.585938 9.9375 -25.015625 C 8.125 -27.472656 6.269531 -28.925781 4.375 -29.375 C 2.476562 -29.820312 0.367188 -29.1875 -1.953125 -27.46875 L -6.5625 -24.09375 L 4.171875 -9.5 Z M 8.78125 -12.875 "/></g></g></g><g fill="#000000" fill-opacity="1"><g transform="translate(122.910338, 98.793845)"><g><path d="M 6.0625 -8.421875 L 20.59375 -14.96875 L 22.71875 -10.25 L 2.265625 -1.015625 L -9.421875 -26.921875 L 10.90625 -36.109375 L 13.015625 -31.4375 L -1.390625 -24.9375 L 1.21875 -19.125 L 14.46875 -25.09375 L 16.46875 -20.6875 L 3.21875 -14.71875 Z M 6.0625 -8.421875 "/></g></g></g><g fill="#000000" fill-opacity="1"><g transform="translate(145.241605, 88.000571)"><g><path d="M -1.015625 -14.453125 C -1.410156 -16.347656 -1.523438 -18.210938 -1.359375 -20.046875 C -1.203125 -21.890625 -0.691406 -23.613281 0.171875 -25.21875 C 1.046875 -26.832031 2.332031 -28.21875 4.03125 -29.375 C 5.738281 -30.539062 7.953125 -31.40625 10.671875 -31.96875 C 13.335938 -32.519531 15.6875 -32.601562 17.71875 -32.21875 C 19.75 -31.832031 21.460938 -31.113281 22.859375 -30.0625 C 24.253906 -29.007812 25.367188 -27.753906 26.203125 -26.296875 C 27.046875 -24.835938 27.628906 -23.328125 27.953125 -21.765625 C 28.484375 -19.148438 28.382812 -16.835938 27.65625 -14.828125 C 26.925781 -12.828125 25.65625 -11.195312 23.84375 -9.9375 L 30.96875 -11.40625 L 31.953125 -6.578125 L 16.546875 -3.40625 C 13.828125 -2.84375 11.457031 -2.738281 9.4375 -3.09375 C 7.425781 -3.457031 5.710938 -4.164062 4.296875 -5.21875 C 2.878906 -6.28125 1.738281 -7.601562 0.875 -9.1875 C 0.0078125 -10.78125 -0.617188 -12.535156 -1.015625 -14.453125 Z M 5.609375 -16.03125 C 5.992188 -14.132812 6.554688 -12.550781 7.296875 -11.28125 C 8.035156 -10.007812 9.066406 -9.132812 10.390625 -8.65625 C 11.710938 -8.1875 13.410156 -8.164062 15.484375 -8.59375 C 17.578125 -9.019531 19.125 -9.707031 20.125 -10.65625 C 21.132812 -11.613281 21.726562 -12.820312 21.90625 -14.28125 C 22.082031 -15.75 21.976562 -17.429688 21.59375 -19.328125 C 21.1875 -21.273438 20.613281 -22.875 19.875 -24.125 C 19.144531 -25.375 18.128906 -26.234375 16.828125 -26.703125 C 15.523438 -27.179688 13.828125 -27.207031 11.734375 -26.78125 C 9.660156 -26.351562 8.109375 -25.660156 7.078125 -24.703125 C 6.054688 -23.753906 5.453125 -22.554688 5.265625 -21.109375 C 5.085938 -19.671875 5.203125 -17.976562 5.609375 -16.03125 Z M 5.609375 -16.03125 "/></g></g></g><g fill="#000000" fill-opacity="1"><g transform="translate(176.380709, 81.539241)"><g><path d="M 2.65625 -10.578125 L 3.1875 -28.34375 L 9.6875 -28.140625 L 9.1875 -11.28125 C 9.132812 -9.457031 9.328125 -8.03125 9.765625 -7 C 10.210938 -5.976562 10.890625 -5.257812 11.796875 -4.84375 C 12.710938 -4.425781 13.875 -4.195312 15.28125 -4.15625 C 16.675781 -4.125 17.835938 -4.285156 18.765625 -4.640625 C 19.691406 -4.992188 20.40625 -5.671875 20.90625 -6.671875 C 21.414062 -7.679688 21.695312 -9.097656 21.75 -10.921875 L 22.25 -27.78125 L 28.703125 -27.59375 L 28.171875 -9.828125 C 28.066406 -6.128906 26.921875 -3.347656 24.734375 -1.484375 C 22.554688 0.378906 19.351562 1.253906 15.125 1.140625 C 10.875 1.015625 7.707031 -0.0390625 5.625 -2.03125 C 3.539062 -4.03125 2.550781 -6.878906 2.65625 -10.578125 Z M 2.65625 -10.578125 "/></g></g></g><g fill="#000000" fill-opacity="1"><g transform="translate(204.402306, 82.300039)"><g><path d="M 9.9375 -2.9375 L 25.4375 0.796875 L 24.234375 5.828125 L 2.421875 0.578125 L 9.0625 -27.0625 L 30.75 -21.84375 L 29.5625 -16.859375 L 14.1875 -20.5625 L 12.6875 -14.359375 L 26.8125 -10.953125 L 25.6875 -6.265625 L 11.5625 -9.671875 Z M 9.9375 -2.9375 "/></g></g></g><g fill="#000000" fill-opacity="1"><g transform="translate(228.705154, 87.743419)"><g><path d="M 6.6875 -8.609375 L 14.296875 -24.6875 L 20.15625 -21.90625 L 12.921875 -6.65625 C 12.140625 -5.007812 11.75 -3.625 11.75 -2.5 C 11.75 -1.375 12.082031 -0.441406 12.75 0.296875 C 13.414062 1.035156 14.382812 1.707031 15.65625 2.3125 C 16.914062 2.90625 18.046875 3.226562 19.046875 3.28125 C 20.046875 3.332031 20.972656 3 21.828125 2.28125 C 22.691406 1.5625 23.515625 0.378906 24.296875 -1.265625 L 31.53125 -16.515625 L 37.359375 -13.75 L 29.75 2.328125 C 28.164062 5.660156 26 7.742188 23.25 8.578125 C 20.5 9.410156 17.210938 8.921875 13.390625 7.109375 C 9.546875 5.285156 7.070312 3.039062 5.96875 0.375 C 4.863281 -2.28125 5.101562 -5.273438 6.6875 -8.609375 Z M 6.6875 -8.609375 "/></g></g></g><g fill="#000000" fill-opacity="1"><g transform="translate(254.064939, 99.687962)"><g><path d="M 10.28125 1.3125 L 22.984375 10.9375 L 19.859375 15.0625 L 1.984375 1.5 L 19.15625 -21.140625 L 36.921875 -7.65625 L 33.828125 -3.578125 L 21.234375 -13.125 L 17.390625 -8.046875 L 28.96875 0.734375 L 26.046875 4.578125 L 14.46875 -4.203125 Z M 10.28125 1.3125 "/></g></g></g><g fill="#000000" fill-opacity="1"><g transform="translate(63.68465, 143.247286)"><g><path d="M -1.53125 4.578125 C -1.300781 3.773438 -0.953125 3.117188 -0.484375 2.609375 C -0.0234375 2.109375 0.503906 1.769531 1.109375 1.59375 C 1.722656 1.425781 2.375 1.441406 3.0625 1.640625 L 2.671875 3.015625 C 2.242188 2.890625 1.820312 2.867188 1.40625 2.953125 C 1 3.046875 0.632812 3.25 0.3125 3.5625 C -0.0078125 3.882812 -0.253906 4.328125 -0.421875 4.890625 C -0.640625 5.628906 -0.628906 6.253906 -0.390625 6.765625 C -0.148438 7.273438 0.234375 7.609375 0.765625 7.765625 C 1.191406 7.890625 1.5625 7.894531 1.875 7.78125 C 2.195312 7.664062 2.484375 7.472656 2.734375 7.203125 C 2.992188 6.941406 3.242188 6.625 3.484375 6.25 C 3.734375 5.875 4.003906 5.484375 4.296875 5.078125 C 4.835938 4.316406 5.378906 3.796875 5.921875 3.515625 C 6.460938 3.242188 7.082031 3.210938 7.78125 3.421875 C 8.363281 3.566406 8.84375 3.84375 9.21875 4.25 C 9.59375 4.664062 9.828125 5.164062 9.921875 5.75 C 10.023438 6.34375 9.972656 6.992188 9.765625 7.703125 C 9.566406 8.390625 9.257812 8.953125 8.84375 9.390625 C 8.4375 9.835938 7.960938 10.132812 7.421875 10.28125 C 6.878906 10.4375 6.320312 10.4375 5.75 10.28125 L 6.15625 8.921875 C 6.445312 9.003906 6.757812 9.007812 7.09375 8.9375 C 7.4375 8.875 7.75 8.707031 8.03125 8.4375 C 8.320312 8.175781 8.535156 7.8125 8.671875 7.34375 C 8.859375 6.75 8.847656 6.21875 8.640625 5.75 C 8.429688 5.28125 8.054688 4.96875 7.515625 4.8125 C 7.046875 4.675781 6.644531 4.703125 6.3125 4.890625 C 5.988281 5.078125 5.675781 5.382812 5.375 5.8125 C 5.082031 6.25 4.738281 6.742188 4.34375 7.296875 C 4.019531 7.765625 3.671875 8.171875 3.296875 8.515625 C 2.929688 8.859375 2.515625 9.085938 2.046875 9.203125 C 1.578125 9.328125 1.035156 9.300781 0.421875 9.125 C -0.0859375 8.976562 -0.53125 8.703125 -0.90625 8.296875 C -1.289062 7.890625 -1.550781 7.367188 -1.6875 6.734375 C -1.820312 6.109375 -1.769531 5.390625 -1.53125 4.578125 Z M -1.53125 4.578125 "/></g></g></g><g fill="#000000" fill-opacity="1"><g transform="translate(58.981261, 162.001297)"><g><path d="M -0.171875 1.1875 L 11.0625 2.734375 L 10.890625 4.078125 L 5.796875 3.375 L 10.234375 8.78125 L 10 10.484375 L 6.109375 5.6875 L -1.234375 9 L -1.015625 7.359375 L 5.203125 4.578125 L 4.03125 3.140625 L -0.34375 2.53125 Z M -0.171875 1.1875 "/></g></g></g><g fill="#000000" fill-opacity="1"><g transform="translate(57.135084, 181.202179)"><g><path d="M -0.015625 1.203125 L 11.328125 1.34375 L 11.3125 2.703125 L -0.03125 2.5625 Z M -0.015625 1.203125 "/></g></g></g><g fill="#000000" fill-opacity="1"><g transform="translate(57.405186, 194.82808)"><g><path d="M 0.140625 1.203125 L 11.40625 -0.0625 L 11.8125 3.625 C 11.914062 4.5 11.851562 5.238281 11.625 5.84375 C 11.40625 6.445312 11.0625 6.910156 10.59375 7.234375 C 10.125 7.566406 9.582031 7.769531 8.96875 7.84375 C 8.351562 7.90625 7.785156 7.832031 7.265625 7.625 C 6.742188 7.414062 6.300781 7.039062 5.9375 6.5 C 5.582031 5.957031 5.351562 5.242188 5.25 4.359375 L 4.984375 2.015625 L 0.28125 2.546875 Z M 6.125 1.890625 L 6.390625 4.203125 C 6.492188 5.097656 6.753906 5.71875 7.171875 6.0625 C 7.597656 6.40625 8.144531 6.539062 8.8125 6.46875 C 9.488281 6.382812 9.992188 6.128906 10.328125 5.703125 C 10.671875 5.273438 10.789062 4.613281 10.6875 3.71875 L 10.421875 1.40625 Z M 6.125 1.890625 "/></g></g></g><g fill="#000000" fill-opacity="1"><g transform="translate(60.331973, 213.853143)"><g/></g></g><g fill="#000000" fill-opacity="1"><g transform="translate(64.127219, 227.502347)"><g><path d="M 1.375 3.609375 L 10.921875 -0.015625 L 9.71875 -3.1875 L 10.78125 -3.59375 L 13.671875 4.015625 L 12.609375 4.421875 L 11.40625 1.25 L 1.859375 4.875 Z M 1.375 3.609375 "/></g></g></g><g fill="#000000" fill-opacity="1"><g transform="translate(71.537644, 245.067252)"><g><path d="M 0.59375 1.046875 L 10.46875 -4.53125 L 11.140625 -3.34375 L 6.78125 -0.875 L 9.671875 4.234375 L 14.03125 1.765625 L 14.703125 2.953125 L 4.828125 8.53125 L 4.15625 7.34375 L 8.703125 4.78125 L 5.8125 -0.328125 L 1.265625 2.234375 Z M 0.59375 1.046875 "/></g></g></g><g fill="#000000" fill-opacity="1"><g transform="translate(82.581189, 262.915406)"><g><path d="M 0.75 0.953125 L 9.671875 -6.0625 L 14 -0.5625 L 13.109375 0.140625 L 9.609375 -4.296875 L 6.5 -1.859375 L 9.703125 2.203125 L 8.84375 2.875 L 5.640625 -1.1875 L 2.46875 1.3125 L 5.96875 5.75 L 5.078125 6.453125 Z M 0.75 0.953125 "/></g></g></g><g fill="#000000" fill-opacity="1"><g transform="translate(94.920967, 277.368308)"><g/></g></g><g fill="#000000" fill-opacity="1"><g transform="translate(105.322962, 286.969272)"><g><path d="M 0.953125 0.734375 L 7.875 -8.25 L 8.953125 -7.421875 L 2.6875 0.703125 L 6.875 3.921875 L 6.21875 4.78125 Z M 0.953125 0.734375 "/></g></g></g><g fill="#000000" fill-opacity="1"><g transform="translate(120.299981, 297.574936)"><g><path d="M 1.03125 0.609375 L 6.8125 -9.140625 L 7.984375 -8.4375 L 2.203125 1.3125 Z M 1.03125 0.609375 "/></g></g></g><g fill="#000000" fill-opacity="1"><g transform="translate(132.254214, 304.193298)"><g><path d="M 1.109375 0.46875 L 5.578125 -9.953125 L 6.828125 -9.421875 L 8.8125 1.328125 L 12.390625 -7.03125 L 13.640625 -6.5 L 9.171875 3.921875 L 7.921875 3.390625 L 5.9375 -7.359375 L 2.359375 1 Z M 1.109375 0.46875 "/></g></g></g><g fill="#000000" fill-opacity="1"><g transform="translate(152.017194, 311.734643)"><g><path d="M 1.171875 0.296875 L 4 -10.6875 L 10.78125 -8.9375 L 10.5 -7.84375 L 5.03125 -9.25 L 4.046875 -5.421875 L 9.046875 -4.140625 L 8.78125 -3.09375 L 3.78125 -4.375 L 2.765625 -0.453125 L 8.234375 0.953125 L 7.953125 2.046875 Z M 1.171875 0.296875 "/></g></g></g><g fill="#000000" fill-opacity="1"><g transform="translate(170.573637, 315.709909)"><g><path d="M -0.21875 1.90625 L 1.171875 -1.515625 L 2.578125 -1.328125 L 0.703125 2.03125 Z M -0.21875 1.90625 "/></g></g></g><g fill="#000000" fill-opacity="1"><g transform="translate(183.247823, 316.991515)"><g><path d="M 4.8125 0.234375 C 3.976562 0.234375 3.253906 0.078125 2.640625 -0.234375 C 2.035156 -0.546875 1.566406 -0.96875 1.234375 -1.5 C 0.910156 -2.039062 0.75 -2.671875 0.75 -3.390625 L 2.171875 -3.375 C 2.171875 -2.925781 2.269531 -2.515625 2.46875 -2.140625 C 2.664062 -1.773438 2.960938 -1.476562 3.359375 -1.25 C 3.753906 -1.019531 4.242188 -0.90625 4.828125 -0.90625 C 5.597656 -0.894531 6.191406 -1.070312 6.609375 -1.4375 C 7.035156 -1.800781 7.253906 -2.257812 7.265625 -2.8125 C 7.273438 -3.257812 7.179688 -3.617188 6.984375 -3.890625 C 6.785156 -4.171875 6.523438 -4.398438 6.203125 -4.578125 C 5.878906 -4.753906 5.503906 -4.910156 5.078125 -5.046875 C 4.648438 -5.179688 4.203125 -5.332031 3.734375 -5.5 C 2.859375 -5.8125 2.210938 -6.191406 1.796875 -6.640625 C 1.390625 -7.097656 1.191406 -7.6875 1.203125 -8.40625 C 1.191406 -9.007812 1.332031 -9.546875 1.625 -10.015625 C 1.925781 -10.492188 2.34375 -10.859375 2.875 -11.109375 C 3.414062 -11.359375 4.054688 -11.484375 4.796875 -11.484375 C 5.515625 -11.472656 6.140625 -11.328125 6.671875 -11.046875 C 7.210938 -10.773438 7.628906 -10.398438 7.921875 -9.921875 C 8.210938 -9.441406 8.359375 -8.898438 8.359375 -8.296875 L 6.9375 -8.3125 C 6.9375 -8.625 6.859375 -8.929688 6.703125 -9.234375 C 6.546875 -9.546875 6.300781 -9.800781 5.96875 -10 C 5.644531 -10.207031 5.238281 -10.316406 4.75 -10.328125 C 4.125 -10.335938 3.613281 -10.179688 3.21875 -9.859375 C 2.820312 -9.535156 2.617188 -9.09375 2.609375 -8.53125 C 2.609375 -8.039062 2.742188 -7.664062 3.015625 -7.40625 C 3.285156 -7.144531 3.664062 -6.925781 4.15625 -6.75 C 4.65625 -6.582031 5.226562 -6.382812 5.875 -6.15625 C 6.40625 -5.957031 6.882812 -5.722656 7.3125 -5.453125 C 7.75 -5.191406 8.085938 -4.851562 8.328125 -4.4375 C 8.566406 -4.03125 8.679688 -3.507812 8.671875 -2.875 C 8.671875 -2.332031 8.523438 -1.820312 8.234375 -1.34375 C 7.953125 -0.863281 7.523438 -0.476562 6.953125 -0.1875 C 6.378906 0.101562 5.664062 0.242188 4.8125 0.234375 Z M 4.8125 0.234375 "/></g></g></g><g fill="#000000" fill-opacity="1"><g transform="translate(202.599005, 316.506855)"><g><path d="M 0.484375 -0.0625 L 3.046875 -11.890625 L 4.46875 -12.09375 L 10.171875 -1.4375 L 8.734375 -1.234375 L 7.3125 -3.984375 L 2.53125 -3.3125 L 1.890625 -0.265625 Z M 2.78125 -4.4375 L 6.75 -5 L 3.984375 -10.28125 Z M 2.78125 -4.4375 "/></g></g></g><g fill="#000000" fill-opacity="1"><g transform="translate(223.045636, 312.827422)"><g><path d="M 4.421875 -1.359375 L -2.984375 -10.953125 L -1.578125 -11.375 L 4.75 -2.953125 L 5.3125 -13.484375 L 6.6875 -13.90625 L 5.9375 -1.8125 Z M 4.421875 -1.359375 "/></g></g></g><g fill="#000000" fill-opacity="1"><g transform="translate(242.77481, 305.993931)"><g><path d="M 5.765625 -2.671875 C 4.765625 -2.171875 3.78125 -1.953125 2.8125 -2.015625 C 1.84375 -2.078125 0.953125 -2.398438 0.140625 -2.984375 C -0.660156 -3.578125 -1.320312 -4.390625 -1.84375 -5.421875 C -2.351562 -6.453125 -2.597656 -7.460938 -2.578125 -8.453125 C -2.554688 -9.453125 -2.28125 -10.363281 -1.75 -11.1875 C -1.21875 -12.007812 -0.453125 -12.671875 0.546875 -13.171875 C 1.546875 -13.660156 2.53125 -13.867188 3.5 -13.796875 C 4.46875 -13.722656 5.359375 -13.394531 6.171875 -12.8125 C 6.984375 -12.238281 7.644531 -11.4375 8.15625 -10.40625 C 8.675781 -9.375 8.921875 -8.351562 8.890625 -7.34375 C 8.867188 -6.34375 8.59375 -5.4375 8.0625 -4.625 C 7.53125 -3.8125 6.765625 -3.160156 5.765625 -2.671875 Z M 5.234375 -3.734375 C 5.972656 -4.097656 6.539062 -4.585938 6.9375 -5.203125 C 7.34375 -5.828125 7.546875 -6.53125 7.546875 -7.3125 C 7.554688 -8.09375 7.34375 -8.914062 6.90625 -9.78125 C 6.476562 -10.644531 5.953125 -11.304688 5.328125 -11.765625 C 4.703125 -12.234375 4.019531 -12.492188 3.28125 -12.546875 C 2.550781 -12.609375 1.816406 -12.457031 1.078125 -12.09375 C 0.335938 -11.71875 -0.234375 -11.21875 -0.640625 -10.59375 C -1.046875 -9.96875 -1.242188 -9.269531 -1.234375 -8.5 C -1.234375 -7.726562 -1.019531 -6.910156 -0.59375 -6.046875 C -0.15625 -5.179688 0.367188 -4.507812 0.984375 -4.03125 C 1.597656 -3.5625 2.273438 -3.300781 3.015625 -3.25 C 3.753906 -3.195312 4.492188 -3.359375 5.234375 -3.734375 Z M 5.234375 -3.734375 "/></g></g></g><g fill="#000000" fill-opacity="1"><g transform="translate(262.685428, 295.036373)"><g><path d="M 0.984375 -0.703125 L -5.625 -9.921875 L -2.65625 -12.046875 C -1.9375 -12.566406 -1.265625 -12.867188 -0.640625 -12.953125 C -0.0234375 -13.046875 0.539062 -12.960938 1.0625 -12.703125 C 1.582031 -12.453125 2.023438 -12.078125 2.390625 -11.578125 C 2.804688 -11.003906 3.023438 -10.367188 3.046875 -9.671875 C 3.066406 -8.984375 2.8125 -8.304688 2.28125 -7.640625 L 7.140625 -5.125 L 5.84375 -4.1875 L 1.234375 -6.65625 L 1.15625 -6.609375 L -0.65625 -5.3125 L 2.078125 -1.5 Z M -1.28125 -6.171875 L 0.515625 -7.453125 C 1.222656 -7.960938 1.617188 -8.503906 1.703125 -9.078125 C 1.785156 -9.660156 1.632812 -10.21875 1.25 -10.75 C 0.863281 -11.300781 0.394531 -11.617188 -0.15625 -11.703125 C -0.707031 -11.785156 -1.347656 -11.566406 -2.078125 -11.046875 L -3.859375 -9.78125 Z M -1.28125 -6.171875 "/></g></g></g><g fill="#000000" fill-opacity="1"><g transform="translate(278.03399, 283.038998)"><g/></g></g><g fill="#000000" fill-opacity="1"><g transform="translate(288.078311, 273.048144)"><g><path d="M 2.46875 -2.96875 L -5.375 -9.515625 L -7.546875 -6.90625 L -8.40625 -7.625 L -3.1875 -13.875 L -2.328125 -13.15625 L -4.5 -10.546875 L 3.34375 -4 Z M 2.46875 -2.96875 "/></g></g></g><g fill="#000000" fill-opacity="1"><g transform="translate(299.770956, 257.99012)"><g><path d="M 0.625 -1.03125 L -9.078125 -6.90625 L -8.375 -8.0625 L -4.078125 -5.46875 L -1.03125 -10.5 L -5.328125 -13.09375 L -4.625 -14.25 L 5.078125 -8.375 L 4.375 -7.21875 L -0.09375 -9.921875 L -3.140625 -4.890625 L 1.328125 -2.1875 Z M 0.625 -1.03125 "/></g></g></g><g fill="#000000" fill-opacity="1"><g transform="translate(309.928812, 239.623458)"><g><path d="M 0.453125 -1.109375 L -10.03125 -5.453125 L -7.34375 -11.9375 L -6.296875 -11.5 L -8.453125 -6.265625 L -4.796875 -4.765625 L -2.8125 -9.546875 L -1.8125 -9.125 L -3.796875 -4.34375 L -0.0625 -2.796875 L 2.09375 -8.03125 L 3.140625 -7.59375 Z M 0.453125 -1.109375 "/></g></g></g><g fill="#000000" fill-opacity="1"><g transform="translate(316.486839, 221.785815)"><g/></g></g><g fill="#000000" fill-opacity="1"><g transform="translate(319.779623, 208.006775)"><g><path d="M 0.546875 -3.8125 L -9.5625 -5.265625 L -10.046875 -1.921875 L -11.171875 -2.078125 L -10.015625 -10.125 L -8.890625 -9.96875 L -9.375 -6.625 L 0.734375 -5.171875 Z M 0.546875 -3.8125 "/></g></g></g><g fill="#000000" fill-opacity="1"><g transform="translate(321.701324, 189.175127)"><g><path d="M 0.015625 -1.203125 L -11.328125 -1.421875 L -11.296875 -2.78125 L 0.046875 -2.5625 Z M 0.015625 -1.203125 "/></g></g></g><g fill="#000000" fill-opacity="1"><g transform="translate(321.619676, 175.462212)"><g><path d="M -0.140625 -1.1875 L -11.40625 0.1875 L -11.609375 -1.390625 L -4.234375 -6.40625 L -12.59375 -9.46875 L -12.78125 -11.0625 L -1.515625 -12.4375 L -1.359375 -11.078125 L -10.203125 -10 L -2.5 -7.109375 L -2.375 -6.109375 L -9.140625 -1.46875 L -0.3125 -2.546875 Z M -0.140625 -1.1875 "/></g></g></g><g fill="#000000" fill-opacity="1"><g transform="translate(317.74703, 152.028101)"><g><path d="M -0.34375 -1.15625 L -11.234375 2.015625 L -13.1875 -4.71875 L -12.109375 -5.03125 L -10.53125 0.40625 L -6.734375 -0.703125 L -8.1875 -5.671875 L -7.140625 -5.96875 L -5.6875 -1 L -1.796875 -2.140625 L -3.375 -7.578125 L -2.296875 -7.890625 Z M -0.34375 -1.15625 "/></g></g></g><g clip-path="url(#00733f9943)"><path fill="#000000" d="M 294.703125 112.863281 C 293.628906 121.917969 292.761719 122.785156 283.710938 123.855469 C 283.726562 123.859375 283.746094 123.863281 283.765625 123.863281 C 292.765625 124.933594 293.632812 125.816406 294.703125 134.847656 C 295.773438 125.796875 296.640625 124.929688 305.695312 123.855469 C 296.640625 122.785156 295.773438 121.917969 294.703125 112.863281 Z M 294.703125 112.863281 " fill-opacity="1" fill-rule="nonzero"/></g><g clip-path="url(#ae78143a9e)"><path fill="#231f20" d="M 210.398438 183.214844 C 210.160156 184.488281 209.929688 185.710938 209.691406 186.964844 C 210.601562 186.558594 214.308594 183.757812 214.597656 183.242188 C 213.160156 183.234375 211.753906 183.226562 210.398438 183.214844 Z M 190.289062 120.355469 C 190.984375 120.359375 191.570312 120.363281 192.15625 120.367188 C 192.535156 120.367188 192.871094 120.25 192.851562 119.8125 C 192.792969 118.398438 192.703125 116.984375 192.621094 115.570312 C 192.617188 115.511719 192.582031 115.453125 192.5625 115.394531 C 192.410156 114.941406 192.097656 114.667969 191.621094 114.617188 C 191.199219 114.574219 190.6875 114.871094 190.523438 115.324219 C 190.378906 115.722656 190.28125 116.15625 190.261719 116.582031 C 190.21875 117.628906 190.230469 118.675781 190.226562 119.726562 C 190.226562 119.902344 190.261719 120.078125 190.289062 120.355469 Z M 203.019531 191.882812 C 204.105469 191.164062 205.0625 190.554688 205.984375 189.902344 C 206.191406 189.753906 206.339844 189.464844 206.429688 189.210938 C 206.988281 187.640625 207.53125 186.0625 208.054688 184.476562 C 208.183594 184.082031 208.226562 183.65625 208.328125 183.160156 C 207.886719 183.136719 207.550781 183.136719 207.222656 183.097656 C 206.703125 183.035156 206.324219 183.203125 206.078125 183.679688 C 205.726562 184.363281 205.28125 185.015625 205.011719 185.730469 C 204.328125 187.550781 203.71875 189.402344 203.085938 191.246094 C 203.039062 191.378906 203.054688 191.53125 203.019531 191.882812 Z M 179.785156 225.667969 C 178.035156 224.300781 176.242188 223.03125 174.601562 221.585938 C 172.96875 220.152344 171.488281 218.542969 169.90625 216.972656 C 169.4375 217.578125 168.972656 218.175781 168.511719 218.773438 C 168.644531 219.015625 168.730469 219.21875 168.855469 219.390625 C 170.898438 222.226562 173.324219 224.683594 176.121094 226.777344 C 176.582031 227.121094 177.160156 227.3125 177.6875 227.566406 C 177.976562 227.707031 178.21875 227.648438 178.421875 227.390625 C 178.875 226.8125 179.332031 226.242188 179.785156 225.667969 Z M 237.558594 179.214844 C 237.5625 179.144531 237.566406 179.074219 237.570312 179.003906 C 236.25 178.894531 234.933594 178.734375 233.609375 178.6875 C 228.683594 178.511719 223.757812 178.34375 218.832031 178.222656 C 215.421875 178.136719 212.011719 178.144531 208.601562 178.097656 C 207.550781 178.085938 206.496094 177.992188 205.445312 178.003906 C 200.855469 178.050781 196.269531 178.128906 191.679688 178.183594 C 189.757812 178.203125 187.835938 178.183594 185.914062 178.191406 C 178.722656 178.210938 171.527344 178.230469 164.335938 178.25 C 163.714844 178.253906 163.09375 178.265625 162.472656 178.273438 C 160.335938 178.3125 158.199219 178.351562 156.058594 178.386719 C 152.28125 178.453125 148.5 178.519531 144.722656 178.59375 C 144.535156 178.601562 144.351562 178.679688 144.167969 178.722656 C 146.925781 179.515625 149.710938 179.96875 152.527344 180.042969 C 156.089844 180.132812 159.65625 180.101562 163.222656 180.0625 C 170.261719 179.992188 177.296875 179.820312 184.335938 179.8125 C 188.050781 179.808594 191.769531 180.09375 195.488281 180.191406 C 205.214844 180.453125 214.953125 180.308594 224.679688 180.832031 C 227.710938 180.996094 230.757812 181.011719 233.757812 180.359375 C 235.054688 180.074219 236.351562 179.789062 237.558594 179.214844 Z M 164.921875 217.820312 C 164.746094 217.933594 164.601562 217.996094 164.503906 218.097656 C 162.238281 220.386719 159.96875 222.671875 157.71875 224.972656 C 157.25 225.453125 157.074219 226.070312 157.390625 226.6875 C 157.738281 227.371094 158.113281 228.0625 158.597656 228.648438 C 160.769531 231.296875 163.222656 233.648438 166.152344 235.460938 C 167.597656 236.359375 169.039062 237.269531 170.535156 238.085938 C 171.421875 238.566406 172.402344 238.871094 173.34375 239.257812 C 173.882812 239.476562 174.253906 239.269531 174.644531 238.867188 C 176.050781 237.429688 177.503906 236.039062 178.921875 234.613281 C 179.699219 233.832031 180.441406 233.015625 181.125 232.175781 C 181.015625 232.046875 180.984375 231.984375 180.933594 231.960938 C 180.742188 231.863281 180.542969 231.777344 180.34375 231.691406 C 177.652344 230.539062 175.15625 229.054688 172.957031 227.117188 C 171.75 226.050781 170.609375 224.90625 169.414062 223.832031 C 167.738281 222.324219 166.363281 220.589844 165.347656 218.570312 C 165.226562 218.332031 165.082031 218.101562 164.921875 217.820312 Z M 122.140625 174.339844 C 122.105469 174.441406 122.066406 174.539062 122.027344 174.636719 C 122.277344 174.835938 122.492188 175.109375 122.773438 175.214844 C 123.292969 175.414062 123.839844 175.582031 124.386719 175.636719 C 126.019531 175.800781 127.65625 175.984375 129.296875 176.007812 C 134.007812 176.082031 138.71875 176.078125 143.429688 176.105469 C 143.867188 176.105469 144.300781 176.085938 144.734375 176.066406 C 148.078125 175.941406 151.417969 175.761719 154.765625 175.699219 C 157.738281 175.648438 160.714844 175.746094 163.691406 175.738281 C 167.472656 175.730469 171.253906 175.675781 175.035156 175.652344 C 179.71875 175.625 184.398438 175.636719 189.082031 175.574219 C 195.25 175.492188 201.417969 175.339844 207.585938 175.261719 C 209.722656 175.230469 211.863281 175.367188 214 175.351562 C 222.65625 175.285156 231.289062 175.808594 239.925781 176.339844 C 244.34375 176.613281 248.785156 176.625 253.214844 176.730469 C 253.765625 176.742188 254.328125 176.640625 254.863281 176.515625 C 255.09375 176.460938 255.394531 176.238281 255.453125 176.03125 C 255.550781 175.683594 255.167969 175.605469 254.917969 175.523438 C 254.5625 175.402344 254.207031 175.285156 253.839844 175.234375 C 252.335938 175.03125 250.835938 174.78125 249.324219 174.691406 C 246.601562 174.53125 243.871094 174.527344 241.148438 174.363281 C 236.042969 174.058594 230.945312 173.660156 225.839844 173.355469 C 222.097656 173.132812 218.351562 172.875 214.605469 172.871094 C 209.304688 172.863281 204.007812 173.0625 198.707031 173.195312 C 192.851562 173.339844 186.996094 173.515625 181.136719 173.664062 C 172.648438 173.878906 164.152344 173.800781 155.664062 174.214844 C 150.652344 174.464844 145.621094 174.382812 140.601562 174.382812 C 134.804688 174.378906 129.003906 174.304688 123.207031 174.261719 C 122.851562 174.261719 122.496094 174.316406 122.140625 174.339844 Z M 173.65625 182.90625 C 173.710938 183.019531 173.75 183.128906 173.8125 183.222656 C 174.527344 184.347656 175.226562 185.480469 175.96875 186.589844 C 177.621094 189.058594 179.289062 191.519531 180.972656 193.972656 C 181.25 194.375 181.597656 194.75 181.972656 195.0625 C 184.566406 197.230469 187.558594 197.902344 190.839844 197.292969 C 193.890625 196.726562 196.625 195.296875 199.410156 194.035156 C 199.734375 193.886719 200.015625 193.5 200.179688 193.160156 C 200.667969 192.160156 201.082031 191.121094 201.53125 190.101562 C 202.53125 187.835938 203.53125 185.574219 204.53125 183.3125 C 204.546875 183.273438 204.503906 183.203125 204.488281 183.148438 C 202.144531 182.695312 175.523438 182.472656 173.65625 182.90625 Z M 165.214844 183.179688 C 165.023438 183.839844 165.273438 184.355469 165.496094 184.855469 C 165.964844 185.902344 166.46875 186.929688 166.972656 187.960938 C 168.046875 190.171875 168.902344 192.460938 169.359375 194.882812 C 170.25 199.605469 171.316406 204.28125 172.792969 208.859375 C 172.984375 209.445312 172.96875 210.007812 172.753906 210.585938 C 172.472656 211.339844 172.1875 212.089844 171.589844 212.675781 C 171.347656 212.914062 171.140625 213.191406 170.9375 213.464844 C 170.554688 213.96875 170.558594 214.199219 170.96875 214.695312 C 171.183594 214.957031 171.429688 215.199219 171.671875 215.441406 C 173.792969 217.574219 176.011719 219.605469 178.371094 221.476562 C 179.460938 222.34375 180.582031 223.175781 181.726562 223.972656 C 182.730469 224.667969 182.90625 224.609375 183.597656 223.636719 C 184.171875 222.828125 184.675781 221.960938 185.320312 221.214844 C 187.472656 218.730469 189.722656 216.335938 192.222656 214.1875 C 193.472656 213.117188 194.765625 212.136719 196.152344 211.238281 C 198.515625 209.707031 200.78125 208.019531 203.027344 206.320312 C 205.125 204.726562 207.070312 202.933594 209.207031 201.398438 C 215.589844 196.8125 220.738281 191.085938 225.050781 184.5625 C 225.230469 184.285156 225.378906 183.988281 225.546875 183.683594 C 224.714844 183.453125 224.726562 183.464844 224.273438 184.058594 C 220.746094 188.679688 216.917969 193.019531 212.511719 196.832031 C 211.738281 197.5 211.003906 198.214844 210.21875 198.871094 C 208.25 200.523438 206.261719 202.15625 204.277344 203.789062 C 204.0625 203.96875 203.832031 204.128906 203.597656 204.277344 C 203.277344 204.476562 202.957031 204.492188 202.652344 204.242188 C 202.324219 203.980469 202.320312 203.640625 202.507812 203.324219 C 202.898438 202.660156 203.257812 201.960938 203.746094 201.375 C 204.972656 199.917969 206.503906 198.800781 208.03125 197.679688 C 209.304688 196.746094 210.558594 195.777344 211.761719 194.753906 C 215.488281 191.597656 218.714844 187.949219 221.890625 184.253906 C 222.042969 184.078125 222.15625 183.871094 222.34375 183.589844 C 221.996094 183.542969 221.761719 183.5 221.527344 183.488281 C 220.8125 183.457031 220.097656 183.464844 219.386719 183.414062 C 218.804688 183.371094 218.285156 183.488281 217.804688 183.8125 C 217.496094 184.019531 217.179688 184.214844 216.878906 184.433594 C 214.148438 186.421875 211.386719 188.371094 208.699219 190.417969 C 204.699219 193.46875 200.25 195.703125 195.675781 197.71875 C 194.179688 198.382812 192.617188 198.90625 191.058594 199.414062 C 188.183594 200.34375 185.398438 200.148438 182.6875 198.734375 C 180.921875 197.816406 179.367188 196.671875 178.164062 195.089844 C 177.304688 193.953125 176.453125 192.800781 175.707031 191.589844 C 174.503906 189.636719 173.429688 187.609375 172.230469 185.65625 C 171.746094 184.871094 171.082031 184.203125 170.492188 183.488281 C 170.125 183.050781 169.65625 182.925781 169.082031 182.972656 C 168.0625 183.054688 167.035156 183.070312 166.015625 183.117188 C 165.746094 183.128906 165.472656 183.160156 165.214844 183.179688 Z M 139.277344 172.363281 C 139.640625 172.40625 139.820312 172.441406 140.003906 172.445312 C 143.972656 172.511719 147.941406 172.507812 151.890625 172.050781 C 154.269531 171.777344 156.652344 171.800781 159.042969 171.832031 C 162.574219 171.878906 166.109375 171.925781 169.640625 171.859375 C 174.101562 171.773438 178.558594 171.535156 183.019531 171.4375 C 187.113281 171.347656 191.207031 171.402344 195.296875 171.324219 C 204.378906 171.144531 213.457031 170.886719 222.535156 171.53125 C 225.78125 171.761719 229.03125 171.917969 232.28125 172.066406 C 235.78125 172.226562 239.285156 172.339844 242.785156 172.460938 C 243.421875 172.484375 243.703125 172.257812 243.796875 171.644531 C 243.839844 171.375 243.824219 171.085938 243.78125 170.8125 C 243.378906 168.339844 243.058594 165.84375 242.535156 163.394531 C 241.335938 157.773438 239.160156 152.519531 236.285156 147.554688 C 235.710938 146.566406 235.101562 145.574219 234.371094 144.699219 C 231.921875 141.773438 229.308594 138.988281 226.46875 136.445312 C 222.398438 132.800781 217.808594 129.917969 212.816406 127.710938 C 208.378906 125.75 203.738281 124.417969 198.964844 123.578125 C 196.34375 123.117188 193.699219 122.714844 191.019531 123.078125 C 189.054688 123.34375 187.085938 123.574219 185.125 123.859375 C 180.367188 124.542969 175.828125 125.988281 171.496094 128.042969 C 169.488281 128.996094 167.578125 130.167969 165.664062 131.304688 C 161.847656 133.574219 158.667969 136.628906 155.484375 139.671875 C 155.375 139.777344 155.277344 139.898438 155.175781 140.019531 C 151.871094 143.972656 148.78125 148.089844 146.332031 152.636719 C 143.59375 157.71875 141.113281 162.914062 139.976562 168.636719 C 139.738281 169.847656 139.523438 171.058594 139.277344 172.363281 Z M 168.085938 215.417969 C 168.21875 215.121094 168.453125 214.847656 168.4375 214.589844 C 168.394531 213.855469 168.820312 213.386719 169.207031 212.859375 C 169.699219 212.1875 170.1875 211.503906 170.578125 210.773438 C 170.9375 210.101562 171.015625 209.375 170.632812 208.636719 C 169 205.507812 168.355469 202.097656 167.851562 198.652344 C 167.714844 197.734375 167.582031 196.8125 167.457031 195.890625 C 167.242188 194.308594 166.730469 192.84375 166.015625 191.40625 C 164.738281 188.824219 163.460938 186.234375 162.867188 183.261719 C 162.582031 183.261719 162.285156 183.238281 161.988281 183.261719 C 158.015625 183.570312 154.050781 183.246094 150.101562 182.941406 C 145.96875 182.625 141.980469 181.574219 138.207031 179.808594 C 136.75 179.125 135.265625 178.757812 133.632812 178.800781 C 131.246094 178.867188 128.855469 178.832031 126.472656 178.765625 C 124.839844 178.71875 123.289062 178.320312 121.921875 177.351562 C 121.214844 176.851562 120.820312 176.207031 120.742188 175.34375 C 120.621094 174 121.035156 173.398438 122.339844 173.03125 C 123.691406 172.648438 125.074219 172.5 126.472656 172.492188 C 129.417969 172.476562 132.367188 172.476562 135.3125 172.464844 C 135.679688 172.464844 136.046875 172.441406 136.484375 172.421875 C 136.566406 171.804688 136.617188 171.226562 136.730469 170.664062 C 137.398438 167.320312 138.09375 163.992188 139.3125 160.789062 C 140.515625 157.628906 141.746094 154.488281 143.453125 151.558594 C 145.347656 148.3125 147.390625 145.171875 149.796875 142.28125 C 150.765625 141.109375 151.679688 139.890625 152.691406 138.761719 C 158.308594 132.484375 165.078125 127.839844 172.835938 124.59375 C 177.378906 122.691406 182.101562 121.460938 186.957031 120.703125 C 188.175781 120.511719 188.191406 120.527344 188.355469 119.304688 C 188.523438 118.074219 188.621094 116.835938 188.820312 115.617188 C 189.03125 114.304688 190.203125 113.21875 191.492188 112.972656 C 192.664062 112.753906 194.246094 113.855469 194.464844 115 C 194.679688 116.125 194.886719 117.25 195.070312 118.382812 C 195.171875 118.992188 195.210938 119.609375 195.289062 120.320312 C 195.875 120.378906 196.449219 120.441406 197.023438 120.492188 C 200.851562 120.8125 204.507812 121.867188 208.117188 123.121094 C 214.484375 125.328125 220.457031 128.296875 225.890625 132.3125 C 233.917969 138.246094 239.984375 145.78125 244.042969 154.886719 C 245.894531 159.035156 246.957031 163.445312 247.804688 167.898438 C 248.054688 169.207031 248.214844 170.53125 248.425781 171.847656 C 248.46875 172.117188 248.546875 172.382812 248.617188 172.707031 C 249.621094 172.8125 250.605469 172.890625 251.582031 173.027344 C 252.683594 173.1875 253.785156 173.375 254.875 173.601562 C 255.886719 173.816406 256.792969 174.296875 257.636719 174.890625 C 258.625 175.585938 258.976562 176.683594 258.480469 177.636719 C 258.316406 177.949219 258.019531 178.207031 257.738281 178.429688 C 256.722656 179.242188 255.492188 179.410156 254.253906 179.507812 C 251.035156 179.757812 247.8125 179.902344 244.59375 179.667969 C 243.195312 179.566406 241.976562 179.902344 240.808594 180.636719 C 239.917969 181.195312 238.984375 181.6875 238.042969 182.167969 C 236.988281 182.707031 235.851562 182.988281 234.675781 183.15625 C 232.582031 183.457031 230.484375 183.617188 228.375 183.585938 C 228.160156 183.582031 227.945312 183.613281 227.691406 183.636719 C 227.445312 184.242188 227.238281 184.859375 226.949219 185.433594 C 226.378906 186.570312 225.847656 187.734375 225.152344 188.789062 C 223.667969 191.042969 221.976562 193.140625 220.089844 195.085938 C 215.648438 199.667969 210.714844 203.65625 205.5625 207.398438 C 201.800781 210.132812 198.101562 212.953125 194.441406 215.824219 C 193.011719 216.949219 191.707031 218.257812 190.457031 219.585938 C 188.394531 221.773438 186.417969 224.042969 184.414062 226.285156 C 183.90625 226.859375 183.421875 227.417969 182.527344 227.121094 C 182.433594 227.089844 182.28125 227.246094 182.105469 227.347656 C 182.535156 228.121094 182.90625 228.863281 183.339844 229.570312 C 184.207031 230.972656 184.066406 232.292969 183.015625 233.503906 C 182.160156 234.484375 181.261719 235.429688 180.332031 236.335938 C 178.558594 238.070312 176.746094 239.761719 174.964844 241.488281 C 174.777344 241.664062 174.613281 241.9375 174.578125 242.183594 C 174.394531 243.433594 173.789062 244.46875 172.980469 245.386719 C 171.675781 246.878906 170.332031 248.339844 169 249.8125 C 166.941406 252.089844 164.867188 254.351562 162.820312 256.636719 C 161.011719 258.660156 158.925781 260.371094 156.8125 262.050781 C 156.082031 262.632812 155.230469 262.898438 154.289062 262.773438 C 153.652344 262.691406 153.496094 262.328125 153.890625 261.816406 C 154.195312 261.425781 154.535156 261.058594 154.898438 260.726562 C 156.414062 259.347656 157.957031 258.003906 159.453125 256.605469 C 160.652344 255.488281 161.875 254.375 162.949219 253.136719 C 165.410156 250.308594 167.804688 247.417969 170.1875 244.523438 C 170.675781 243.9375 171.070312 243.25 171.386719 242.550781 C 171.734375 241.789062 171.605469 241.554688 170.859375 241.136719 C 169.859375 240.578125 168.847656 240.042969 167.722656 239.433594 C 167.296875 239.875 166.816406 240.304688 166.421875 240.800781 C 164.355469 243.410156 161.761719 245.417969 159.054688 247.300781 C 158.945312 247.375 158.796875 247.390625 158.523438 247.484375 C 158.894531 246.609375 159.554688 246.179688 160.054688 245.621094 C 160.570312 245.042969 161.128906 244.5 161.65625 243.9375 C 162.207031 243.347656 162.75 242.75 163.285156 242.144531 C 163.800781 241.566406 164.304688 240.976562 164.796875 240.378906 C 165.289062 239.785156 165.761719 239.167969 166.242188 238.566406 C 163.941406 236.53125 161.679688 234.527344 159.371094 232.480469 C 158.816406 232.9375 158.261719 233.375 157.734375 233.839844 C 156.386719 235.03125 155.054688 236.238281 153.707031 237.429688 C 153.359375 237.738281 152.992188 238.027344 152.609375 238.28125 C 152.425781 238.40625 152.179688 238.4375 151.808594 238.558594 C 151.875 238.203125 151.859375 237.976562 151.953125 237.828125 C 152.207031 237.4375 152.476562 237.050781 152.796875 236.71875 C 154.054688 235.433594 155.335938 234.175781 156.601562 232.894531 C 157.117188 232.371094 157.609375 231.820312 158.152344 231.230469 C 156.945312 229.902344 155.910156 228.570312 155.285156 226.875 C 154.910156 227.125 154.625 227.300781 154.355469 227.496094 C 150.3125 230.429688 146.355469 233.476562 142.601562 236.773438 C 140.929688 238.242188 139.386719 239.867188 137.824219 241.457031 C 134.652344 244.691406 131.507812 247.949219 128.351562 251.191406 C 128.097656 251.449219 127.820312 251.832031 127.414062 251.519531 C 127.035156 251.230469 127.25 250.832031 127.429688 250.507812 C 128.339844 248.878906 129.375 247.335938 130.628906 245.949219 C 134.519531 241.640625 138.648438 237.570312 143.042969 233.777344 C 144.945312 232.136719 146.785156 230.421875 148.738281 228.84375 C 150.300781 227.582031 151.914062 226.335938 153.660156 225.359375 C 154.867188 224.679688 155.785156 223.816406 156.757812 222.878906 C 159.1875 220.53125 161.777344 218.359375 164.304688 216.113281 C 164.511719 215.929688 164.738281 215.757812 164.921875 215.554688 C 165.628906 214.777344 166.191406 214.625 167.152344 214.996094 C 167.4375 215.109375 167.710938 215.25 168.085938 215.417969 " fill-opacity="1" fill-rule="nonzero"/></g><path fill="#231f20" d="M 173.199219 234.746094 C 173.910156 235.359375 174.40625 235.371094 174.75 234.871094 C 174.949219 234.578125 174.925781 234.300781 174.699219 234.03125 C 174.449219 233.738281 174.160156 233.730469 173.898438 233.96875 C 173.640625 234.203125 173.429688 234.484375 173.199219 234.746094 Z M 174.109375 236.859375 C 173.699219 236.746094 173.261719 236.679688 172.875 236.5 C 171.898438 236.042969 171.539062 234.816406 172.125 233.90625 C 172.914062 232.671875 174.417969 232.222656 175.875 233.027344 C 176.714844 233.488281 176.890625 234.890625 176.292969 235.765625 C 175.820312 236.453125 175.074219 236.808594 174.109375 236.859375 " fill-opacity="1" fill-rule="nonzero"/></svg>